<svg xmlns="http://www.w3.org/2000/svg" viewBox="0 0 48 48">
  <defs>
    <linearGradient id="bg" x1="0" y1="0" x2="1" y2="1">
      <stop offset="0%" stop-color="#0EA5E9"/>
      <stop offset="100%" stop-color="#0284C7"/>
    </linearGradient>
    <linearGradient id="pipe" x1="0" y1="0" x2="0" y2="1">
      <stop offset="0%" stop-color="#F59E0B"/>
      <stop offset="50%" stop-color="#D97706"/>
      <stop offset="100%" stop-color="#92400E"/>
    </linearGradient>
  </defs>
  <circle cx="24" cy="24" r="22" fill="url(#bg)"/>
  <circle cx="24" cy="24" r="20" fill="none" stroke="white" stroke-width="0.5" opacity="0.2"/>
  <rect x="21" y="10" width="6" height="20" rx="2" fill="url(#pipe)"/>
  <rect x="14" y="17" width="20" height="6" rx="2" fill="url(#pipe)"/>
  <rect x="19" y="15" width="10" height="10" rx="3" fill="#D97706" stroke="#92400E" stroke-width="0.8"/>
  <circle cx="24" cy="20" r="2.5" fill="#92400E"/>
  <circle cx="24" cy="20" r="1.2" fill="#F59E0B"/>
  <path d="M24 32 Q24 28 27 26 Q30 28 30 32 Q30 36 27 36 Q24 36 24 32Z" fill="white" opacity="0.9"/>
  <path d="M25 33 Q25 31 26.5 30 Q28 31 28 33 Q28 35 26.5 35 Q25 35 25 33Z" fill="#0EA5E9" opacity="0.4"/>
</svg>
